<?xml version="1.0" encoding="UTF-8" standalone="no"?>
<!-- Created with Inkscape (http://www.inkscape.org/) -->

<svg
   xmlns:dc="http://purl.org/dc/elements/1.1/"
   xmlns:cc="http://creativecommons.org/ns#"
   xmlns:rdf="http://www.w3.org/1999/02/22-rdf-syntax-ns#"
   xmlns:svg="http://www.w3.org/2000/svg"
   xmlns="http://www.w3.org/2000/svg"
   xmlns:sodipodi="http://sodipodi.sourceforge.net/DTD/sodipodi-0.dtd"
   xmlns:inkscape="http://www.inkscape.org/namespaces/inkscape"
   width="512mm"
   height="512mm"
   viewBox="0 0 512 512"
   id="svg2"
   version="1.1"
   inkscape:version="0.91+devel+osxmenu r12922"
   sodipodi:docname="logo.svg"
   inkscape:export-filename="/Users/pagem/Documents/workspace/uptime/logo.png"
   inkscape:export-xdpi="25.4"
   inkscape:export-ydpi="25.4">
  <defs
     id="defs4" />
  <sodipodi:namedview
     id="base"
     pagecolor="#ffffff"
     bordercolor="#666666"
     borderopacity="1.0"
     inkscape:pageopacity="0.0"
     inkscape:pageshadow="2"
     inkscape:zoom="0.25"
     inkscape:cx="736.81815"
     inkscape:cy="661.52658"
     inkscape:document-units="mm"
     inkscape:current-layer="layer1"
     showgrid="true"
     fit-margin-top="0"
     fit-margin-left="0"
     fit-margin-right="0"
     fit-margin-bottom="0"
     inkscape:window-width="1280"
     inkscape:window-height="1395"
     inkscape:window-x="1280"
     inkscape:window-y="23"
     inkscape:window-maximized="0">
    <inkscape:grid
       type="xygrid"
       id="grid4141"
       originx="-32.067305"
       originy="-205.70873" />
  </sodipodi:namedview>
  <metadata
     id="metadata7">
    <rdf:RDF>
      <cc:Work
         rdf:about="">
        <dc:format>image/svg+xml</dc:format>
        <dc:type
           rdf:resource="http://purl.org/dc/dcmitype/StillImage" />
        <dc:title></dc:title>
      </cc:Work>
    </rdf:RDF>
  </metadata>
  <g
     inkscape:label="Layer 1"
     inkscape:groupmode="layer"
     id="layer1"
     transform="translate(-32.067304,420.70873)">
    <g
       transform="matrix(2.4476535,0,0,2.4476535,-234.7372,-795.22234)"
       style="font-style:normal;font-variant:normal;font-weight:bold;font-stretch:normal;font-size:192px;line-height:125%;font-family:Stenc;-inkscape-font-specification:'Stenc Bold';letter-spacing:0px;word-spacing:0px;fill:#55efc4;fill-opacity:1;stroke:none;stroke-width:1px;stroke-linecap:butt;stroke-linejoin:miter;stroke-opacity:1"
       aria-label="U"
       id="flowRoot4145">
      <path
         sodipodi:nodetypes="ccscscsccscscsc"
         style="fill:#55efc4;fill-opacity:1;stroke:none"
         d="m 134.625,202.57005 29.34375,0 0,87.99743 c 0,9.5 1.125,16.4375 3.375,20.8125 3.5,7.75 11.125,11.625 22.875,11.625 11.6875,0 19.28125,-3.875 22.78125,-11.625 2.25,-4.375 3.375,-11.3125 3.375,-20.8125 l 0,-121.43076 29.34375,0 0,121.43076 c 0,14.6875 -2.28125,26.125 -6.84375,34.3125 -8.5,15 -24.71875,22.5 -48.65625,22.5 -23.9375,0 -40.1875,-7.5 -48.75,-22.5 -4.5625,-8.1875 -6.84375,-19.625 -6.84375,-34.3125 z"
         id="path4178"
         inkscape:connector-curvature="0" />
    </g>
    <g
       transform="matrix(2.099236,0,0,2.099236,42.584299,-759.38378)"
       style="font-style:normal;font-variant:normal;font-weight:bold;font-stretch:normal;font-size:192px;line-height:125%;font-family:Stenc;-inkscape-font-specification:'Stenc Bold';letter-spacing:0px;word-spacing:0px;fill:#55efc4;fill-opacity:1;stroke:none;stroke-width:1px;stroke-linecap:butt;stroke-linejoin:miter;stroke-opacity:1"
       aria-label="P"
       id="flowRoot4145-4">
      <path
         d="m 200.97142,231.40312 c 0,-8.38044 -2.22265,-14.35606 -6.66792,-17.92685 -4.3724,-3.57079 -10.53019,-5.35619 -18.47339,-5.35619 l -22.19965,0 0,47.44055 22.19965,0 c 7.9432,0 14.10099,-1.93115 18.47339,-5.79343 4.44527,-3.86229 6.66792,-9.98365 6.66792,-18.36408 z m 33.33955,-0.21862 c 0,19.01994 -4.80965,32.46507 -14.42893,40.33539 -9.61928,7.87032 -23.35591,11.80548 -41.20987,11.80548 l -25.04171,0 -10.1294,-27.40037 -11.65973,0 -11.65974,-75.78828 61.00471,0 c 16.17788,0 29.07646,4.15378 38.69574,12.46135 9.61928,8.30755 14.42893,21.16969 14.42893,38.58643 z"
         id="path4181"
         inkscape:connector-curvature="0"
         sodipodi:nodetypes="scsccscssssccccsss"
         style="fill:#55efc4;fill-opacity:1;stroke:none;stroke-width:1.16597342px" />
    </g>
    <path
       style="fill:#55efc4;fill-opacity:1;fill-rule:evenodd;stroke:none;stroke-width:7.66026306;stroke-linecap:round;stroke-linejoin:round;stroke-miterlimit:4;stroke-dasharray:none;stroke-opacity:1"
       d="m 219.93482,-275.16663 -178.107577,0 89.053797,-106.06764 z"
       id="path4183"
       inkscape:connector-curvature="0"
       sodipodi:nodetypes="cccc" />
  </g>
</svg>
